<svg version="1.1" xmlns="http://www.w3.org/2000/svg" height="801" width="1024" viewBox="0 0 1308 1024"><path d="M403.257625 207.496002c-47.843681 4.77619-84.316106 37.169224-95.442011 84.751197-2.25724 9.653792-3.654112 326.802604-1.495013 339.367908 4.979014 28.987546 43.842805 34.712431 56.781045 8.364875l2.548392-5.191653 0.451448-165.831924 0.454719-165.835196 1.933376-5.103326c11.351629-29.975498 48.802191-40.414416 72.827079-20.302078 3.932178 3.290991 11.148805 10.007099 45.298561 42.158053 8.727996 8.217663 18.519185 17.42655 21.761106 20.468917 11.525011 10.818397 51.239356 48.134833 62.453588 58.688249 6.271203 5.898267 14.050503 12.892441 17.289152 15.545516 31.70932 25.951721 77.492043 30.996163 114.422458 12.611104 13.219577-6.581982 18.309818-10.651557 46.868815-37.480004l28.4674-26.733577c6.925475-6.503469 14.096302-13.252291 15.928265-14.995927 1.835235-1.743636 8.587327-8.063909 15.00247-14.043961a4736.769812 4736.769812 0 0 0 19.412267-18.198591c40.005496-37.823497 42.756712-40.227949 50.395345-44.009644 23.746823-11.767092 53.52931 0.595388 63.238715 26.249415l1.94646 5.145854 0.45472 165.835196 0.451448 165.831924 2.659618 5.250538c13.334075 26.311571 51.690804 20.612857 56.67309-8.420488 1.84832-10.772598 0.758956-329.491664-1.154791-337.987394-16.199789-71.91764-92.523955-107.99423-155.592559-73.543508-11.659137 6.366072-15.574958 9.666877-51.203372 43.162361a27545.954594 27545.954594 0 0 1-36.714505 34.434366c-11.181518 10.468361-24.021617 22.575675-28.536098 26.906959-4.511209 4.331284-9.208886 8.744353-10.44219 9.804274-1.230032 1.059922-5.090241 4.68132-8.580784 8.050824-32.294894 31.182631-39.105871 35.435402-56.705804 35.435402-18.178963 0-19.968399-1.216947-67.906949-46.214542a15715.080727 15715.080727 0 0 0-41.942143-39.289068c-2.093672-1.923561-6.460942-6.006222-9.699591-9.078032-3.238649-3.068538-12.823742-12.061515-21.296572-19.988027-8.47283-7.923241-18.666396-17.531233-22.654188-21.348914-27.38785-26.216702-56.656733-37.633758-88.352967-34.467078m-72.866336 505.291431c-22.549504 8.263463-26.056405 41.412182-5.649643 53.372285 12.977496 7.605919 81.123256 25.074996 132.434581 33.950203 102.661908 17.756957 211.176285 21.401256 324.869229 10.906724 78.630477-7.259154 176.02222-28.735651 203.668507-44.915812 17.318595-10.137953 17.943425-38.026322 1.108992-49.757428-9.424796-6.568897-18.744909-6.585253-37.349149-0.065428-153.60357 53.823733-408.730615 53.843361-586.624055 0.042528-17.792942-5.381392-25.209122-6.189418-32.458462-3.533072" fill="#F4AA17"></path></svg>