<?xml version="1.0" standalone="no"?><!DOCTYPE svg PUBLIC "-//W3C//DTD SVG 1.1//EN" "http://www.w3.org/Graphics/SVG/1.1/DTD/svg11.dtd"><svg t="1727701743838" class="icon" viewBox="0 0 1024 1024" version="1.1" xmlns="http://www.w3.org/2000/svg" p-id="1751" xmlns:xlink="http://www.w3.org/1999/xlink" width="200" height="200"><path d="M764 272c-81.74 0-146.92 41.06-187.2 75.52l-1.42 1.22-22.94 24.94 50.64 83.22 37.48-37.58C679.78 386.2 723.56 368 764 368c81.6 0 148 64.6 148 144s-66.4 144-148 144c-124 0-208.28-163.9-209.12-165.56C550 480.58 443.12 272 260 272 125.46 272 16 379.66 16 512s109.46 240 244 240c65.9 0 130.76-26.22 187.58-75.84l1.22-1.08 22.76-24.76-50.66-83.22-37.66 37.76C344 638.8 302.52 656 260 656c-81.6 0-148-64.6-148-144s66.4-144 148-144c124 0 208.28 163.9 209.12 165.56C474 543.42 580.88 752 764 752c134.54 0 244-107.66 244-240s-109.46-240-244-240z" p-id="1752"></path></svg>