<?xml version="1.0" standalone="no"?><!DOCTYPE svg PUBLIC "-//W3C//DTD SVG 1.1//EN" "http://www.w3.org/Graphics/SVG/1.1/DTD/svg11.dtd"><svg t="1727764773853" class="icon" viewBox="0 0 1024 1024" version="1.1" xmlns="http://www.w3.org/2000/svg" p-id="2506" xmlns:xlink="http://www.w3.org/1999/xlink" width="200" height="200"><path d="M294.5024 592.4864a161.5872 161.5872 0 0 1-129.7408-64.4096 163.84 163.84 0 0 1-26.624-144.7936 159.0272 159.0272 0 0 1 115.2-111.3088 163.84 163.84 0 0 1 141.824 29.9008C407.1424 311.296 615.3216 460.8 696.32 517.9392a118.0672 118.0672 0 0 0 136.3968 1.3312 112.64 112.64 0 0 0 48.8448-120.832q-0.9216-4.3008-2.1504-8.6016a128.1024 128.1024 0 0 0-85.1968-86.016 133.12 133.12 0 0 0-140.9024 39.424 15.36 15.36 0 1 1-23.1424-20.48 163.84 163.84 0 0 1 172.7488-48.3328 159.0272 159.0272 0 0 1 105.8816 106.8032c0.9216 3.4816 1.8432 6.8608 2.6624 10.24a143.36 143.36 0 0 1-61.44 153.6A149.7088 149.7088 0 0 1 678.4 542.72C603.5456 489.7792 389.12 336.4864 376.1152 325.9392a133.12 133.12 0 0 0-115.4048-24.064 126.3616 126.3616 0 0 0-92.9792 89.7024 133.9392 133.9392 0 0 0 21.504 117.9648 132.096 132.096 0 0 0 206.5408 4.9152A15.36 15.36 0 1 1 419.84 534.1184a162.5088 162.5088 0 0 1-125.3376 58.368zM680.96 737.28H365.9776a15.36 15.36 0 1 1 0-30.72H680.96a15.36 15.36 0 0 1 0 30.72z" fill="#32384B" p-id="2507"></path></svg>