<?xml version="1.0" standalone="no"?><!DOCTYPE svg PUBLIC "-//W3C//DTD SVG 1.1//EN" "http://www.w3.org/Graphics/SVG/1.1/DTD/svg11.dtd"><svg t="1727765582786" class="icon" viewBox="0 0 1024 1024" version="1.1" xmlns="http://www.w3.org/2000/svg" p-id="4795" xmlns:xlink="http://www.w3.org/1999/xlink" width="200" height="200"><path d="M792.29227587 294.01126208c-60.68335138 0-116.9480121 27.6904613-166.58463689 61.71437918-38.73718787 26.65943349-77.03250672 59.79961325-113.70763898 92.93979298-36.67513227-33.28746944-74.97045109-66.42764919-113.70763898-92.93979298-49.63662478-34.17120756-105.90128553-61.71437919-166.58463689-61.71437918-119.30464711 0-217.98873792 98.83138051-217.98873792 217.98873792s98.83138051 217.98873792 217.98873792 217.98873792c60.68335138 0 116.9480121-27.6904613 166.58463689-61.71437918 38.73718787-26.65943349 77.03250672-59.79961325 113.70763898-92.93979298 36.67513227 33.28746944 74.97045109 66.42764919 113.70763898 92.93979298 49.63662478 34.17120756 105.90128553 61.71437919 166.58463689 61.71437918 119.30464711 0 217.98873792-98.83138051 217.98873792-217.98873792s-98.68409082-217.98873792-217.98873792-217.98873792zM345.4153631 591.24185204c-43.74503728 30.04709632-81.00932829 45.36522383-113.70763897 45.36522383-67.6059667 0-124.60707587-57.00110917-124.60707586-124.60707587s57.00110917-124.60707587 124.60707586-124.60707587c32.69831069 0 69.81531202 15.17083783 113.70763897 45.36522383 31.66728287 21.79887379 63.77643483 49.19475572 97.21119396 79.24185204-33.43475913 30.04709632-65.54391107 57.44297824-97.21119396 79.24185204z m446.87691277 45.36522383c-32.69831069 0-69.81531202-15.17083783-113.70763897-45.36522383-31.66728287-21.79887379-63.77643483-49.19475572-97.21119396-79.24185204 33.43475913-30.04709632 65.54391107-57.44297824 97.21119396-79.24185204 43.74503728-30.04709632 81.00932829-45.36522383 113.70763897-45.36522383 67.6059667 0 124.60707587 57.00110917 124.60707586 124.60707587s-57.00110917 124.60707587-124.60707586 124.60707587z" fill="#1296db" p-id="4796"></path></svg>