<?xml version="1.0" standalone="no"?><!DOCTYPE svg PUBLIC "-//W3C//DTD SVG 1.1//EN" "http://www.w3.org/Graphics/SVG/1.1/DTD/svg11.dtd"><svg t="1727764871236" class="icon" viewBox="0 0 1024 1024" version="1.1" xmlns="http://www.w3.org/2000/svg" p-id="3656" xmlns:xlink="http://www.w3.org/1999/xlink" width="200" height="200"><path d="M465.92 86.4l-294.4 176.64A89.6 89.6 0 0 0 128 339.84v357.12c0 31.488 16.512 60.672 43.52 76.8l294.4 176.64a89.6 89.6 0 0 0 92.16 0l294.4-176.64a89.6 89.6 0 0 0 31.744-32.448 32 32 0 0 0-11.264-43.2L655.872 567.04a32 32 0 0 0-44.032 11.072c-10.24 17.216-24.576 31.68-41.92 42.048a112.64 112.64 0 0 1-115.84 0 121.216 121.216 0 0 1-58.88-103.936v-4.992l0.448-10.24a120.768 120.768 0 0 1 58.432-93.696 112.64 112.64 0 0 1 115.84 0c19.008 11.392 34.368 27.648 44.672 47.04a32 32 0 0 0 44.544 12.544l214.4-126.592a32 32 0 0 0 11.968-42.56 89.6 89.6 0 0 0-33.024-34.752l-294.4-176.64a89.6 89.6 0 0 0-92.16 0z m336.832 221.376l-150.08 88.512-5.888-7.232a185.152 185.152 0 0 0-43.904-36.672 176.64 176.64 0 0 0-181.76 0 185.216 185.216 0 0 0-89.344 144.96l-0.512 12.672v6.208c0 65.088 34.112 125.376 89.856 158.848a176.64 176.64 0 0 0 181.76 0l11.008-7.168c10.816-7.552 20.672-16.192 29.568-25.792l4.416-5.184 153.664 92.736-276.352 165.888a25.6 25.6 0 0 1-26.368 0l-294.4-176.64A25.6 25.6 0 0 1 192 696.96V339.84a25.6 25.6 0 0 1 12.416-21.952l294.4-176.64a25.6 25.6 0 0 1 26.368 0l277.568 166.528z" fill="#141414" p-id="3657"></path></svg>